<svg xmlns="http://www.w3.org/2000/svg" viewBox="0 0 200 60" fill="none">
  <!-- BPCL Flame Symbol -->
  <g transform="translate(5, 5)">
    <!-- Outer flame - Red/Orange -->
    <path d="M25 0C25 0 35 15 35 25C35 35 30 45 25 50C20 45 15 35 15 25C15 15 25 0 25 0Z" fill="#E31837"/>
    <!-- Inner flame - Yellow -->
    <path d="M25 8C25 8 32 18 32 25C32 32 28 40 25 44C22 40 18 32 18 25C18 18 25 8 25 8Z" fill="#FFD100"/>
    <!-- Core flame - Orange -->
    <path d="M25 16C25 16 29 22 29 26C29 30 27 35 25 38C23 35 21 30 21 26C21 22 25 16 25 16Z" fill="#FF6B00"/>
  </g>
  
  <!-- BHARAT text -->
  <text x="55" y="28" font-family="Arial Black, Arial, sans-serif" font-size="18" font-weight="900" fill="#006B3F">BHARAT</text>
  
  <!-- PETROLEUM text -->
  <text x="55" y="48" font-family="Arial Black, Arial, sans-serif" font-size="18" font-weight="900" fill="#006B3F">PETROLEUM</text>
  
  <!-- Energising Lives tagline -->
  <text x="55" y="58" font-family="Arial, sans-serif" font-size="6" fill="#666666" font-style="italic">Energising Lives</text>
</svg>
